PathFileType	4	(X/Y/Z)	C:/Users/beibeiliu/ov580/test_trc/capture2\sequence.30_training_dense_right.trc
DataRate	CameraRate	NumFrames	NumMarkers	Units	OrigDataRate	OrigDataStartFrame	OrigNumFrames
120	120	25	19	mm	120	1	400
Frame#	Time	ThumbCMC			ThumbMCP			ThumbIP			ThumbTip			IndexMCP			IndexPIP			IndexTip			MiddleMCP			MiddlePIP			MiddleTip			RingMCP			RingPIP			RingTip			PinkyMCP			PinkyPIP			PinkyTip			BackHand1			BackHand2			BackHand3	
		X0	Y0	Z0	X1	Y1	Z1	X2	Y2	Z2	X3	Y3	Z3	X4	Y4	Z4	X5	Y5	Z5	X6	Y6	Z6	X7	Y7	Z7	X8	Y8	Z8	X9	Y9	Z9	X10	Y10	Z10	X11	Y11	Z11	X12	Y12	Z12	X13	Y13	Z13	X14	Y14	Z14	X15	Y15	Z15	X16	Y16	Z16	X17	Y17	Z17	X18	Y18	Z18	
0	0	123.65	25.4009	32.8289	102.344	15.4067	11.5844	91.7049	11.9424	-13.7569	85.2875	9.02327	-34.925	139.139	46.3795	-37.7728	136.393	44.9256	-66.8955	134.049	45.5855	-88.3902	168.478	47.1426	-41.2936	168.634	45.9918	-67.8791	176.175	43.7934	-96.5634	186.712	39.9155	-36.4037	193.429	38.1137	-61.9036	201.376	34.0813	-88.5172	204.359	29.5213	-22.916	216.442	26.8744	-42.3553	230.106	27.4302	-60.229	180.845	45.1358	13.9899	176.97	46.6079	45.0344	148.351	48.9226	27.0017	
1	0.00833333	122.446	26.5078	28.5586	107.038	15.7463	13.3148	94.2859	13.0514	-14.6557	83.3103	9.17029	-31.9565	139.728	46.2671	-37.146	134.536	47.0245	-65.2806	138.007	46.3815	-91.0011	165.332	47.5359	-40.0993	169.018	46.6756	-71.1896	176.393	45.3567	-97.7257	185.331	41.3077	-38.2403	197.806	38.1301	-57.7134	200.279	34.7707	-87.5745	204.374	29.6256	-21.6831	217.969	27.5111	-42.5635	228.111	27.9541	-63.987	181.19	45.0429	14.7417	177.897	45.7889	45.2625	148.713	50.5669	24.6408	
2	0.0166667	122.214	26.7508	34.4757	108.484	16.4412	11.5369	93.9122	13.6765	-13.0628	87.2983	10.744	-32.7434	141.177	47.0496	-36.9665	134.905	47.1248	-60.7859	139.518	47.3443	-86.9814	167.153	49.0095	-44.38	169.785	47.716	-69.9988	177.998	45.6292	-98.4734	189.302	41.8087	-35.6339	195.117	39.4711	-57.3647	202.286	34.8899	-85.3858	206.242	32.0487	-22.1107	218.441	27.4044	-39.2972	229.219	29.2855	-58.8891	183.355	46.2699	14.5267	182.333	47.5512	43.6662	151.737	51.5222	27.0861	
3	0.025	122.446	28.3242	32.055	106.891	17.6574	14.7679	95.594	15.0435	-13.7552	86.3551	11.0113	-33.2207	140.281	48.091	-34.4021	136.13	47.7729	-64.5449	141.645	47.6357	-88.2294	172.164	49.8536	-40.9849	175.137	48.3598	-69.8606	181.268	45.4355	-95.6464	189.398	44.2829	-36.435	198.546	41.1976	-60.3735	202.524	35.8224	-85.4107	207.126	32.3937	-20.14	217.971	28.3054	-36.8351	233.349	29.917	-60.8264	181.887	49.0211	15.0847	181.74	46.107	46.8323	149.634	51.9598	23.8717	
4	0.0333333	122.365	30.4582	31.0284	109.038	18.7053	14.0086	96.1398	15.6779	-11.9547	88.5294	11.1652	-33.7205	142.617	50.2249	-37.7862	136.702	49.7492	-61.1084	142.483	47.78	-87.2378	168.038	51.1606	-37.8141	173.797	49.1854	-69.5883	178.734	47.8834	-93.9555	188.969	43.4179	-31.5136	196.635	42.1401	-60.8424	204.027	38.275	-86.4123	208.877	32.002	-16.9681	221.117	30.0478	-40.5076	234.617	29.4982	-60.4006	183.121	48.9172	18.5488	185.552	49.1451	47.4533	155.533	52.5859	28.4556	
5	0.0416667	123.938	30.717	30.1767	112.097	18.9269	13.5139	99.1988	14.969	-7.6495	90.6626	11.4756	-30.1199	140.14	50.1549	-35.9512	141.059	50.0542	-63.4594	136.34	49.0652	-89.7366	171.19	52.1534	-37.5312	176.578	51.3226	-65.4883	178.82	49.2737	-92.1294	189.262	45.7449	-34.8162	200.153	43.967	-56.8386	202.373	39.6482	-82.292	212.106	33.8302	-19.5479	219.472	31.5696	-37.0588	238.26	32.6135	-59.7001	188.195	49.3736	16.2878	183.698	49.7342	44.3971	156.143	54.0535	24.6586	
6	0.05	127.23	30.9298	31.4723	109.459	20.5824	15.2657	95.4345	16.8701	-9.86997	87.6252	12.008	-28.9461	141.982	50.9513	-36.0836	136.119	50.711	-63.0978	141.866	49.9458	-88.1178	169.307	54.1109	-38.765	174.903	52.3628	-65.6533	180.519	50.2594	-93.8145	194.119	47.4286	-33.639	202.064	45.2108	-56.6329	206.87	41.3106	-81.6708	209.619	35.209	-17.606	224.937	31.5996	-37.5419	239.466	34.2565	-59.0702	185.079	52.1056	18.9274	181.924	51.0501	46.5798	154.506	54.7328	25.3199	
7	0.0583333	126.315	31.8309	35.7095	110.545	21.6996	14.8732	97.4965	17.8664	-8.88073	88.1265	14.3036	-30.4409	140.382	52.7931	-36.2354	139.677	51.0372	-64.9189	139.646	51.5712	-90.3418	172.201	54.5321	-40.3988	175.917	53.2216	-67.1797	184.586	51.5924	-97.3308	195.416	47.8099	-34.2924	203.875	46.2122	-57.632	204.868	43.8185	-81.8662	210.454	36.6158	-16.0891	221.969	33.6246	-34.7284	240.688	37.0562	-54.5494	185.47	54.9232	14.5716	183.013	53.2711	48.4837	152.456	56.8748	28.1229	
8	0.0666667	129.537	33.0323	30.5549	111.002	21.9423	15.0796	99.9416	18.247	-7.25587	88.8067	13.9703	-27.9801	142.574	53.224	-37.8601	138.377	53.1197	-63.2162	141.218	53.0498	-85.7792	172.933	56.0073	-39.1718	177.433	54.3504	-69.3613	181.323	53.1807	-91.7354	191.702	49.6628	-31.0749	200.429	47.789	-55.3483	207.626	45.5127	-84.4628	212.914	37.8523	-17.5959	222.837	34.1744	-37.6243	241.454	35.2105	-51.4276	189.807	55.713	16.2858	186.861	54.0366	45.3536	156.224	56.7941	28.8807	
9	0.075	126.583	34.3111	34.9918	110.611	21.6652	14.1991	98.2313	18.4451	-7.35894	88.1636	14.6633	-29.9714	144.292	54.8469	-37.9769	136.757	53.2405	-59.9625	139.719	53.0681	-88.8825	169.673	58.3819	-42.2102	176.592	56.2835	-69.242	180.222	56.2284	-92.7019	192.497	50.7401	-31.3732	199.263	49.2493	-55.6856	205.848	47.1538	-82.9711	215.081	38.0168	-17.3997	224.155	34.5207	-36.4689	238.57	38.0439	-53.9561	184.12	54.2789	17.5909	186.403	54.4595	43.757	157.625	59.4165	29.4115	
10	0.0833333	128.909	35.3882	31.4907	108.37	23.1133	12.149	94.9083	17.4273	-8.9008	88.8374	13.1114	-31.5973	141.994	55.1709	-34.3082	136.22	54.2716	-64.2097	142.449	55.0889	-86.6167	171.996	58.1602	-41.111	178.678	58.0477	-64.938	182.877	57.2999	-92.6188	194.643	52.0976	-34.5277	201.17	50.8545	-56.0807	207.063	48.501	-82.4051	215.483	37.0574	-17.5473	223.823	33.5376	-36.3529	241.205	36.6113	-55.9564	183.978	55.4793	19.0723	184.274	56.8653	47.4801	156.119	57.7994	29.1333	
11	0.0916667	126.817	34.1464	35.6889	113.677	22.3699	13.8963	96.4573	17.1612	-12.2491	86.9051	12.3503	-33.0511	139.741	54.8384	-36.6828	138.098	54.692	-63.3889	139.259	54.8078	-88.9274	168.525	58.3004	-37.8977	176.762	59.4061	-66.1684	179.305	60.5057	-92.7797	193.386	52.5777	-33.466	201.893	50.612	-55.2527	206.334	48.6349	-84.1044	212.165	37.5593	-22.3281	225.86	31.7489	-37.8834	241.879	32.3476	-53.0157	186.373	56.2973	14.3702	183.373	56.2231	45.8865	152.076	58.5612	24.7998	
12	0.1	123.771	34.7969	35.0239	111.864	21.9101	14.1553	97.5337	16.1946	-6.49522	87.9115	12.1006	-28.164	137.919	56.1302	-38.0934	137.402	54.3396	-62.5273	135.277	54.5288	-83.6948	168.116	60.017	-41.9634	177.974	59.0669	-67.5466	181.559	60.8108	-91.7289	191.631	52.3925	-34.4169	203.066	50.4735	-57.6332	204.399	49.9989	-83.1268	213.835	36.4747	-20.2996	222.537	29.9628	-36.7123	238.212	29.7501	-53.7887	183.764	58.4917	16.0955	182.495	55.8079	45.4826	151.526	60.8576	29.0793	
13	0.108333	127.344	34.4466	32.2725	110.463	20.2372	13.7346	98.3848	15.7737	-8.15742	87.6349	9.91886	-26.3829	141.293	54.4172	-35.5247	137.757	54.0665	-62.0612	135.464	54.9168	-88.9807	171.9	59.0378	-36.5122	176.524	59.8209	-62.899	182.441	62.9962	-93.0212	193.941	51.6402	-34.5956	196.277	50.1386	-55.9051	205.464	49.4667	-78.541	213.176	35.0202	-16.2079	223.924	26.243	-36.3334	234.972	26.5392	-51.2446	182.415	57.2153	19.2421	182.03	56.6873	44.6844	150.072	60.8756	29.2007	
14	0.116667	124.516	33.3509	32.208	106.98	18.7005	16.0281	96.8541	13.6817	-7.77367	86.2582	8.24754	-31.9127	137.224	55.0099	-38.6492	136.492	52.7031	-64.2455	133.541	53.7903	-85.9841	166.61	58.7166	-38.8569	175.712	59.6971	-61.7644	179.904	63.6955	-91.4131	193.201	51.1765	-32.7009	199.247	50.7551	-58.2201	204.404	50.2007	-83.0588	210.813	34.3671	-16.8901	223.72	25.6672	-31.5219	237.592	22.6682	-53.3433	184.849	56.8826	18.2647	178.725	57.4718	46.7556	150.273	58.7192	25.5668	
15	0.125	121.656	33.0077	31.6049	109.117	17.2529	14.2192	95.9819	11.5218	-7.88827	88.5395	6.10281	-28.7924	135.483	54.1086	-37.4588	132.375	51.7333	-63.8176	131.277	53.8144	-85.9292	166.887	58.9858	-40.5014	170.647	60.5393	-66.0353	176.164	64.8151	-89.303	187.616	51.7931	-34.4049	200.38	50.4372	-52.6917	206.132	50.027	-80.24	210.764	34.5126	-17.092	221.553	23.8638	-32.1076	234.795	19.1085	-52.0829	184.321	58.7482	19.876	180.996	58.7825	45.4981	148.685	58.2207	29.2801	
16	0.133333	124.699	30.9989	32.9208	108.145	15.8589	12.7916	99.6638	10.694	-12.7919	89.6155	4.56435	-32.2407	134.794	53.4778	-37.8582	130.541	51.6057	-61.4551	134.357	55.2681	-87.4532	164.352	59.7062	-36.5072	169.779	60.5457	-62.2152	180.213	65.1555	-86.7082	186.68	51.0576	-29.4488	197.829	48.8616	-55.69	204.535	48.4178	-80.961	209.627	35.8289	-14.1168	219.261	21.8721	-34.7283	232.433	14.577	-53.2575	180.51	59.8811	21.0218	178.252	59.3362	49.9502	147.93	57.5083	30.8879	
17	0.141667	121.312	29.8536	31.6088	112.308	14.1806	9.57565	98.5506	7.66278	-9.94612	91.6296	3.34575	-29.9416	136.604	53.2847	-37.818	133.576	52.1824	-61.3078	134.256	55.0382	-83.9225	166.564	59.9326	-38.5167	171.773	61.7979	-64.3381	175.245	66.6892	-88.8055	186.02	51.7751	-32.6887	200.241	47.376	-56.4649	203.111	44.6531	-78.6459	208.403	36.2065	-18.2493	218.88	21.0808	-33.6621	233.516	11.9154	-48.3847	179.962	61.365	21.4507	175.393	59.9233	52.3906	143.076	56.8369	30.7089	
18	0.15	118.975	27.3654	35.8653	111.607	13.1327	10.2114	99.3662	5.67256	-9.62451	92.0833	1.51842	-32.2668	133.197	51.395	-34.256	132.958	51.9876	-57.7434	135.526	58.1923	-85.2196	162.511	60.2941	-39.5348	171.214	60.6988	-59.4944	179.386	66.7836	-88.0955	189.822	51.8022	-28.0738	197.66	46.5577	-51.5683	205.094	38.9049	-78.3363	207.355	38.7757	-13.9787	217.084	20.4945	-32.6844	228.358	7.16978	-44.5777	174.26	62.137	19.5696	170.741	58.4107	49.993	144.071	57.5617	30.5179	
19	0.158333	120.662	25.4803	32.8693	115.538	12.5127	9.33516	105.325	5.66493	-10.2161	96.7714	0.594925	-33.6617	135.004	49.151	-31.8299	132.37	51.3914	-58.0046	131.621	56.5637	-80.8927	167.323	59.9797	-38.0056	171.929	60.4514	-61.7895	177.775	66.258	-89.0376	190.29	49.9742	-32.6543	197.109	42.0605	-53.8232	207.487	30.231	-78.6256	205.424	39.1797	-13.2079	215.803	20.1999	-28.0257	222.145	0.432469	-46.8411	173.197	62.9747	17.9342	171.282	61.1393	48.1143	143.532	56.0301	32.5514	
20	0.166667	125.292	23.4504	31.3974	116.262	9.75042	12.7304	103.484	2.39803	-12.6577	103.74	0.769872	-35.595	139.188	50.0414	-33.7963	132.151	50.3474	-57.8804	133.052	56.4292	-81.6907	163.032	58.2297	-34.9311	171.59	60.1297	-58.6685	176.065	64.9483	-90.2871	189.319	48.9804	-32.1778	199.211	37.5046	-53.8057	211.702	24.8401	-71.472	209.956	38.2078	-12.851	216.003	18.3071	-23.6818	220.512	-6.78035	-36.6683	176.667	64.7116	24.1662	171.012	62.3621	52.0849	139.645	52.9585	26.6494	
21	0.175	123.736	21.806	30.3827	119.114	8.48089	7.59412	106.098	1.3306	-15.8359	103.716	-2.77062	-34.6456	137.801	48.8006	-37.3936	133.635	49.3542	-56.3593	134.392	57.1577	-85.5353	165.618	57.8321	-37.8586	170.192	57.9191	-63.7573	178.887	63.722	-88.8393	193.034	47.5855	-32.2834	201.87	35.2171	-48.6504	213.622	17.5168	-68.2003	208.601	36.581	-15.073	211.46	14.4086	-23.3283	212.946	-11.9697	-30.1234	170.428	63.6706	23.0529	168.345	60.5955	51.4663	142.343	53.6326	30.3496	
22	0.183333	125.256	20.4491	30.1082	120.483	6.40834	10.1922	109.989	1.61904	-18.6947	105.725	-3.61704	-38.8466	137.217	47.4683	-37.5214	136.46	48.2178	-60.9965	138.114	56.2005	-83.6266	168.147	56.4881	-34.6397	175.247	57.072	-61.0114	181.65	62.0874	-90.5688	192.773	47.0099	-28.2438	202.544	31.0922	-48.899	215.696	9.4149	-64.3368	204.742	35.8841	-15.4217	212.861	12.5174	-19.3016	207.488	-15.9408	-24.3054	171.011	64.4861	17.8623	165.432	58.9272	52.4099	141.917	51.6465	26.1831	
23	0.191667	124.002	17.1398	31.7909	120.715	3.81544	8.58045	114.045	-1.54486	-14.7615	105.528	-8.22714	-37.9668	141.291	45.6865	-34.0149	135.9	46.0515	-60.9137	141.145	54.155	-82.6201	165.173	54.0994	-35.7268	175.735	55.5105	-61.5643	181.858	60.1482	-86.8745	192.76	43	-29.8416	207.542	24.9948	-49.1075	213.269	-1.59111	-61.8659	206.875	35.0291	-14.3202	210.551	13.4608	-19.2955	207.176	-18.4606	-14.2967	173.881	62.3207	17.7335	166.129	60.4369	51.8306	140.838	50.1748	29.717	
24	0.2	127.071	18.2417	29.1183	122.518	3.64697	7.64	111.683	-5.3405	-15.3283	108.808	-9.99558	-41.2889	140.788	43.3411	-38.6359	139.337	44.9916	-61.1952	141.03	51.6656	-85.408	170.458	53.4498	-35.3678	175.933	53.8249	-62.0376	184.442	59.1864	-90.4718	192.179	39.7533	-33.2196	206.715	21.3433	-46.9063	214.106	-3.5122	-55.1123	207.016	35.2548	-12.5465	210.217	5.78666	-17.6568	207.722	-17.9537	-8.53691	172.157	62.7024	17.2841	166.235	59.447	52.2	139.459	47.288	28.393	
